<svg xmlns="http://www.w3.org/2000/svg" xmlns:xlink="http://www.w3.org/1999/xlink" aria-hidden="true" role="img" class="iconify iconify--logos" width="35.93" height="32" preserveAspectRatio="xMidYMid meet" viewBox="0 0 256 228"><path fill="#00D8FF" d="M210.483 75.824c-1.894-1.165-4.329-1.165-6.223 0l-13.091 8.06a4.976 4.976 0 0 0-2.491 4.31v16.12a4.976 4.976 0 0 0 2.491 4.31l13.091 8.06c1.894 1.165 4.329 1.165 6.223 0l13.091-8.06a4.976 4.976 0 0 0 2.491-4.31v-16.12a4.976 4.976 0 0 0-2.491-4.31l-13.091-8.06Z"></path><path fill="#00D8FF" d="M128.483 0c-1.894 0-3.788.582-5.682 1.747L109.71 9.807a4.976 4.976 0 0 0-2.491 4.31v16.12a4.976 4.976 0 0 0 2.491 4.31l13.091 8.06c1.894 1.165 4.329 1.165 6.223 0l13.091-8.06a4.976 4.976 0 0 0 2.491-4.31v-16.12a4.976 4.976 0 0 0-2.491-4.31l-13.091-8.06A9.952 9.952 0 0 0 128.483 0Z"></path><path fill="#00D8FF" d="M46.483 75.824c-1.894-1.165-4.329-1.165-6.223 0l-13.091 8.06a4.976 4.976 0 0 0-2.491 4.31v16.12a4.976 4.976 0 0 0 2.491 4.31l13.091 8.06c1.894 1.165 4.329 1.165 6.223 0l13.091-8.06a4.976 4.976 0 0 0 2.491-4.31v-16.12a4.976 4.976 0 0 0-2.491-4.31l-13.091-8.06Z"></path><path fill="#00D8FF" d="M128.483 150.824c-1.894-1.165-4.329-1.165-6.223 0l-13.091 8.06a4.976 4.976 0 0 0-2.491 4.31v16.12a4.976 4.976 0 0 0 2.491 4.31l13.091 8.06c1.894 1.165 4.329 1.165 6.223 0l13.091-8.06a4.976 4.976 0 0 0 2.491-4.31v-16.12a4.976 4.976 0 0 0-2.491-4.31l-13.091-8.06Z"></path><path fill="#00D8FF" d="M210.483 150.824c-1.894-1.165-4.329-1.165-6.223 0l-13.091 8.06a4.976 4.976 0 0 0-2.491 4.31v16.12a4.976 4.976 0 0 0 2.491 4.31l13.091 8.06c1.894 1.165 4.329 1.165 6.223 0l13.091-8.06a4.976 4.976 0 0 0 2.491-4.31v-16.12a4.976 4.976 0 0 0-2.491-4.31l-13.091-8.06Z"></path><path fill="#00D8FF" d="M46.483 150.824c-1.894-1.165-4.329-1.165-6.223 0l-13.091 8.06a4.976 4.976 0 0 0-2.491 4.31v16.12a4.976 4.976 0 0 0 2.491 4.31l13.091 8.06c1.894 1.165 4.329 1.165 6.223 0l13.091-8.06a4.976 4.976 0 0 0 2.491-4.31v-16.12a4.976 4.976 0 0 0-2.491-4.31l-13.091-8.06Z"></path></svg> 